<svg width="29" height="30" viewBox="0 0 29 30" fill="none" xmlns="http://www.w3.org/2000/svg">
<path d="M15.7143 11.4286C16.5 11.4286 17.1429 10.7857 17.1429 10V7.14286H20C20.7857 7.14286 21.4286 6.5 21.4286 5.71429C21.4286 4.92857 20.7857 4.28571 20 4.28571H17.1429V1.42857C17.1429 0.642857 16.5 0 15.7143 0C14.9286 0 14.2857 0.642857 14.2857 1.42857V4.28571H11.4286C10.6429 4.28571 10 4.92857 10 5.71429C10 6.5 10.6429 7.14286 11.4286 7.14286H14.2857V10C14.2857 10.7857 14.9286 11.4286 15.7143 11.4286ZM8.57143 24.2857C7 24.2857 5.72857 25.5714 5.72857 27.1429C5.72857 28.7143 7 30 8.57143 30C10.1429 30 11.4286 28.7143 11.4286 27.1429C11.4286 25.5714 10.1429 24.2857 8.57143 24.2857ZM22.8571 24.2857C21.2857 24.2857 20.0143 25.5714 20.0143 27.1429C20.0143 28.7143 21.2857 30 22.8571 30C24.4286 30 25.7143 28.7143 25.7143 27.1429C25.7143 25.5714 24.4286 24.2857 22.8571 24.2857ZM10.1429 17.1429H20.7857C21.8571 17.1429 22.8 16.5571 23.2857 15.6714L27.9143 6.9C28.2714 6.21429 28.0286 5.35714 27.3429 4.98571C26.6429 4.6 25.7714 4.87143 25.4 5.57143L20.7857 14.2857H10.7571L4.67143 1.42857H1.42857C0.642857 1.42857 0 2.07143 0 2.85714C0 3.64286 0.642857 4.28571 1.42857 4.28571H2.85714L8 15.1286L6.07143 18.6143C5.02857 20.5286 6.4 22.8571 8.57143 22.8571H24.2857C25.0714 22.8571 25.7143 22.2143 25.7143 21.4286C25.7143 20.6429 25.0714 20 24.2857 20H8.57143L10.1429 17.1429Z" fill="#EFE4E8"/>
</svg>
