<svg width="70" height="70" viewBox="0 0 70 70" fill="none" xmlns="http://www.w3.org/2000/svg">
<path d="M21 70C19.075 70 17.4277 69.3152 16.058 67.9455C14.686 66.5735 14 64.925 14 63C14 61.075 14.686 59.4265 16.058 58.0545C17.4277 56.6848 19.075 56 21 56C22.925 56 24.5723 56.6848 25.942 58.0545C27.314 59.4265 28 61.075 28 63C28 64.925 27.314 66.5735 25.942 67.9455C24.5723 69.3152 22.925 70 21 70ZM56 70C54.075 70 52.4277 69.3152 51.058 67.9455C49.686 66.5735 49 64.925 49 63C49 61.075 49.686 59.4265 51.058 58.0545C52.4277 56.6848 54.075 56 56 56C57.925 56 59.5735 56.6848 60.9455 58.0545C62.3152 59.4265 63 61.075 63 63C63 64.925 62.3152 66.5735 60.9455 67.9455C59.5735 69.3152 57.925 70 56 70ZM18.025 14L26.425 31.5H50.925L60.55 14H18.025ZM21 52.5C18.375 52.5 16.3917 51.3473 15.05 49.042C13.7083 46.739 13.65 44.45 14.875 42.175L19.6 33.6L7 7H3.4125C2.42083 7 1.60417 6.664 0.9625 5.992C0.320833 5.32233 0 4.49167 0 3.5C0 2.50833 0.336 1.6765 1.008 1.0045C1.67767 0.334833 2.50833 0 3.5 0H9.1875C9.82917 0 10.4417 0.175 11.025 0.525C11.6083 0.875 12.0458 1.37083 12.3375 2.0125L14.7 7H66.325C67.9 7 68.9792 7.58333 69.5625 8.75C70.1458 9.91667 70.1167 11.1417 69.475 12.425L57.05 34.825C56.4083 35.9917 55.5625 36.8958 54.5125 37.5375C53.4625 38.1792 52.2667 38.5 50.925 38.5H24.85L21 45.5H59.5875C60.5792 45.5 61.3958 45.8348 62.0375 46.5045C62.6792 47.1765 63 48.0083 63 49C63 49.9917 62.664 50.8223 61.992 51.492C61.3223 52.164 60.4917 52.5 59.5 52.5H21Z" fill="black"/>
</svg>
