<svg width="30" height="30" viewBox="0 0 30 30" fill="none" xmlns="http://www.w3.org/2000/svg">
<path d="M9 30C8.175 30 7.469 29.7065 6.882 29.1195C6.294 28.5315 6 27.825 6 27C6 26.175 6.294 25.4685 6.882 24.8805C7.469 24.2935 8.175 24 9 24C9.825 24 10.531 24.2935 11.118 24.8805C11.706 25.4685 12 26.175 12 27C12 27.825 11.706 28.5315 11.118 29.1195C10.531 29.7065 9.825 30 9 30ZM24 30C23.175 30 22.469 29.7065 21.882 29.1195C21.294 28.5315 21 27.825 21 27C21 26.175 21.294 25.4685 21.882 24.8805C22.469 24.2935 23.175 24 24 24C24.825 24 25.5315 24.2935 26.1195 24.8805C26.7065 25.4685 27 26.175 27 27C27 27.825 26.7065 28.5315 26.1195 29.1195C25.5315 29.7065 24.825 30 24 30ZM7.725 6L11.325 13.5H21.825L25.95 6H7.725ZM9 22.5C7.875 22.5 7.025 22.006 6.45 21.018C5.875 20.031 5.85 19.05 6.375 18.075L8.4 14.4L3 3H1.4625C1.0375 3 0.6875 2.856 0.4125 2.568C0.1375 2.281 0 1.925 0 1.5C0 1.075 0.144 0.7185 0.432 0.4305C0.719 0.1435 1.075 0 1.5 0H3.9375C4.2125 0 4.475 0.0750001 4.725 0.225C4.975 0.375 5.1625 0.5875 5.2875 0.8625L6.3 3H28.425C29.1 3 29.5625 3.25 29.8125 3.75C30.0625 4.25 30.05 4.775 29.775 5.325L24.45 14.925C24.175 15.425 23.8125 15.8125 23.3625 16.0875C22.9125 16.3625 22.4 16.5 21.825 16.5H10.65L9 19.5H25.5375C25.9625 19.5 26.3125 19.6435 26.5875 19.9305C26.8625 20.2185 27 20.575 27 21C27 21.425 26.856 21.781 26.568 22.068C26.281 22.356 25.925 22.5 25.5 22.5H9Z" fill="#EFE4E8"/>
</svg>
