<svg width="27" height="30" viewBox="0 0 27 30" fill="none" xmlns="http://www.w3.org/2000/svg">
<path d="M5 30C4.08333 30 3.29889 29.6739 2.64667 29.0217C1.99333 28.3683 1.66667 27.5833 1.66667 26.6667V5C1.19444 5 0.798334 4.84056 0.478334 4.52167C0.159445 4.20167 0 3.80556 0 3.33333C0 2.86111 0.159445 2.465 0.478334 2.145C0.798334 1.82611 1.19444 1.66667 1.66667 1.66667H8.33333C8.33333 1.19444 8.49333 0.798333 8.81333 0.478333C9.13222 0.159444 9.52778 0 10 0H16.6667C17.1389 0 17.535 0.159444 17.855 0.478333C18.1739 0.798333 18.3333 1.19444 18.3333 1.66667H25C25.4722 1.66667 25.8678 1.82611 26.1867 2.145C26.5067 2.465 26.6667 2.86111 26.6667 3.33333C26.6667 3.80556 26.5067 4.20167 26.1867 4.52167C25.8678 4.84056 25.4722 5 25 5V26.6667C25 27.5833 24.6739 28.3683 24.0217 29.0217C23.3683 29.6739 22.5833 30 21.6667 30H5ZM5 5V26.6667H21.6667V5H5ZM8.33333 21.6667C8.33333 22.1389 8.49333 22.5344 8.81333 22.8533C9.13222 23.1733 9.52778 23.3333 10 23.3333C10.4722 23.3333 10.8683 23.1733 11.1883 22.8533C11.5072 22.5344 11.6667 22.1389 11.6667 21.6667V10C11.6667 9.52778 11.5072 9.13167 11.1883 8.81167C10.8683 8.49278 10.4722 8.33333 10 8.33333C9.52778 8.33333 9.13222 8.49278 8.81333 8.81167C8.49333 9.13167 8.33333 9.52778 8.33333 10V21.6667ZM15 21.6667C15 22.1389 15.16 22.5344 15.48 22.8533C15.7989 23.1733 16.1944 23.3333 16.6667 23.3333C17.1389 23.3333 17.535 23.1733 17.855 22.8533C18.1739 22.5344 18.3333 22.1389 18.3333 21.6667V10C18.3333 9.52778 18.1739 9.13167 17.855 8.81167C17.535 8.49278 17.1389 8.33333 16.6667 8.33333C16.1944 8.33333 15.7989 8.49278 15.48 8.81167C15.16 9.13167 15 9.52778 15 10V21.6667Z" fill="black"/>
</svg>
