<svg width="24" height="30" viewBox="0 0 24 30" fill="none" xmlns="http://www.w3.org/2000/svg">
<path d="M3 30C2.175 30 1.469 29.7065 0.882 29.1195C0.294 28.5315 0 27.825 0 27V9C0 8.175 0.294 7.469 0.882 6.882C1.469 6.294 2.175 6 3 6H6C6 4.35 6.5875 2.9375 7.7625 1.7625C8.9375 0.5875 10.35 0 12 0C13.65 0 15.0625 0.5875 16.2375 1.7625C17.4125 2.9375 18 4.35 18 6H21C21.825 6 22.5315 6.294 23.1195 6.882C23.7065 7.469 24 8.175 24 9V27C24 27.825 23.7065 28.5315 23.1195 29.1195C22.5315 29.7065 21.825 30 21 30H3ZM9 6H15C15 5.175 14.7065 4.469 14.1195 3.882C13.5315 3.294 12.825 3 12 3C11.175 3 10.469 3.294 9.882 3.882C9.294 4.469 9 5.175 9 6ZM3 27H21V9H18V12C18 12.425 17.8565 12.781 17.5695 13.068C17.2815 13.356 16.925 13.5 16.5 13.5C16.075 13.5 15.719 13.356 15.432 13.068C15.144 12.781 15 12.425 15 12V9H9V12C9 12.425 8.8565 12.781 8.5695 13.068C8.2815 13.356 7.925 13.5 7.5 13.5C7.075 13.5 6.719 13.356 6.432 13.068C6.144 12.781 6 12.425 6 12V9H3V27Z" fill="#EFE4E8"/>
</svg>
